<?xml version="1.0" encoding="UTF-8"?>
<svg version="1.1" xmlns="http://www.w3.org/2000/svg" width="32" height="32">
<path d="M0 0 C3.92061103 2.19278684 6.97809862 4.95619724 9 9 C10.34009135 20.6039728 10.34009135 20.6039728 7.5078125 25.66796875 C4.31531972 29.30423128 1.94759708 31.77508065 -2.9765625 32.34375 C-14.03729021 32.81744284 -14.03729021 32.81744284 -18.8125 28.625 C-23.61624433 23.64713274 -23.50615879 19.37124985 -23.4921875 12.57421875 C-22.75174943 7.19722801 -20.18398445 4.28471177 -16 1 C-11.26503433 -1.36748284 -5.10642777 -0.70318022 0 0 Z " fill="#F7F7F7" transform="translate(23,0)"/>
<path d="M0 0 C1.13953125 -0.04898437 2.2790625 -0.09796875 3.453125 -0.1484375 C6.75 0.375 6.75 0.375 9.6484375 2.3828125 C12.31139437 6.17430871 12.35739787 9.16937185 12.125 13.625 C12.10373047 14.72328125 12.10373047 14.72328125 12.08203125 15.84375 C11.93348214 21.19151786 11.93348214 21.19151786 10.75 22.375 C7.90664952 22.47486975 5.09302837 22.51377881 2.25 22.5 C1.45207031 22.50386719 0.65414063 22.50773437 -0.16796875 22.51171875 C-6.12339233 22.50160767 -6.12339233 22.50160767 -7.25 21.375 C-7.34880797 19.89847336 -7.38079245 18.41732764 -7.3828125 16.9375 C-7.38410156 16.04289062 -7.38539063 15.14828125 -7.38671875 14.2265625 C-7.38091797 12.81503906 -7.38091797 12.81503906 -7.375 11.375 C-7.37886719 10.43398437 -7.38273438 9.49296875 -7.38671875 8.5234375 C-7.38542969 7.62882813 -7.38414062 6.73421875 -7.3828125 5.8125 C-7.38112061 4.57306641 -7.38112061 4.57306641 -7.37939453 3.30859375 C-7.09489003 -0.94286976 -3.53555982 0.10305443 0 0 Z " fill="#3A3A3A" transform="translate(14.25,4.625)"/>
<path d="M0 0 C2.64 0 5.28 0 8 0 C8.33 1.65 8.66 3.3 9 5 C10.65 5.33 12.3 5.66 14 6 C13.67 7.32 13.34 8.64 13 10 C9.37 9.67 5.74 9.34 2 9 C2.33 9.66 2.66 10.32 3 11 C4.89533342 11.46523063 4.89533342 11.46523063 7.0625 11.625 C8.361875 11.74875 9.66125 11.8725 11 12 C11 12.33 11 12.66 11 13 C8.03 13 5.06 13 2 13 C2 13.66 2 14.32 2 15 C5.63 15 9.26 15 13 15 C13.33 14.01 13.66 13.02 14 12 C14 13.98 14 15.96 14 18 C9.38 18 4.76 18 0 18 C0 12.06 0 6.12 0 0 Z " fill="#F7F7F7" transform="translate(9,7)"/>
<path d="M0 0 C1.37478516 0.01740234 1.37478516 0.01740234 2.77734375 0.03515625 C3.69644531 0.04417969 4.61554687 0.05320312 5.5625 0.0625 C6.27277344 0.07410156 6.98304687 0.08570313 7.71484375 0.09765625 C7.71484375 0.42765625 7.71484375 0.75765625 7.71484375 1.09765625 C5.07484375 1.42765625 2.43484375 1.75765625 -0.28515625 2.09765625 C-0.61515625 8.03765625 -0.94515625 13.97765625 -1.28515625 20.09765625 C3.66484375 20.09765625 8.61484375 20.09765625 13.71484375 20.09765625 C13.71484375 15.47765625 13.71484375 10.85765625 13.71484375 6.09765625 C14.04484375 6.09765625 14.37484375 6.09765625 14.71484375 6.09765625 C14.71484375 11.37765625 14.71484375 16.65765625 14.71484375 22.09765625 C11.90228094 22.12449937 9.08997134 22.14441813 6.27734375 22.16015625 C5.47490234 22.16853516 4.67246094 22.17691406 3.84570312 22.18554688 C1.80189154 22.19417055 -0.24199527 22.14993775 -2.28515625 22.09765625 C-3.87453181 20.50828069 -3.41496768 18.85865779 -3.41796875 16.66015625 C-3.41925781 15.76554687 -3.42054688 14.8709375 -3.421875 13.94921875 C-3.41607422 12.53769531 -3.41607422 12.53769531 -3.41015625 11.09765625 C-3.41402344 10.15664062 -3.41789063 9.215625 -3.421875 8.24609375 C-3.42058594 7.35148438 -3.41929687 6.456875 -3.41796875 5.53515625 C-3.41627686 4.29572266 -3.41627686 4.29572266 -3.41455078 3.03125 C-3.22412081 0.18557946 -2.85356788 0.12194735 0 0 Z " fill="#1E1E1E" transform="translate(10.28515625,4.90234375)"/>
<path d="M0 0 C0.33 0 0.66 0 1 0 C1 3.96 1 7.92 1 12 C0.34 11.01 -0.32 10.02 -1 9 C-3.66653905 8.63539547 -3.66653905 8.63539547 -6.625 8.8125 C-7.62789062 8.83957031 -8.63078125 8.86664063 -9.6640625 8.89453125 C-10.43492188 8.92933594 -11.20578125 8.96414062 -12 9 C-12 7 -12 5 -12 3 C-8.37 3 -4.74 3 -1 3 C-0.67 2.01 -0.34 1.02 0 0 Z " fill="#656565" transform="translate(23,13)"/>
<path d="M0 0 C0.33 0 0.66 0 1 0 C1.33 4.95 1.66 9.9 2 15 C5.63 15 9.26 15 13 15 C13.33 14.01 13.66 13.02 14 12 C14 13.98 14 15.96 14 18 C9.38 18 4.76 18 0 18 C0 12.06 0 6.12 0 0 Z " fill="#E0E0E0" transform="translate(9,7)"/>
<path d="M0 0 C1.32 0 2.64 0 4 0 C4 0.99 4 1.98 4 3 C5.98 3 7.96 3 10 3 C10 3.33 10 3.66 10 4 C7.03 4 4.06 4 1 4 C0.67 2.68 0.34 1.36 0 0 Z " fill="#A2A2A2" transform="translate(11,12)"/>
<path d="M0 0 C1.32 0.66 2.64 1.32 4 2 C3.67 2.99 3.34 3.98 3 5 C1.68 5 0.36 5 -1 5 C-0.67 3.35 -0.34 1.7 0 0 Z " fill="#696969" transform="translate(20,6)"/>
</svg>
