<?xml version="1.0" encoding="UTF-8"?>
<svg version="1.1" xmlns="http://www.w3.org/2000/svg" width="129" height="129">
<path d="M0 0 C0.99668701 0.00499512 1.99337402 0.00999023 3.02026367 0.01513672 C21.17402203 0.43870981 34.97150965 7.89760913 47.8125 20.5 C48.451875 21.11488281 49.09125 21.72976562 49.75 22.36328125 C60.55324355 33.62469808 65.41474352 49.36276946 65.3125 64.6875 C65.30750488 65.68418701 65.30250977 66.68087402 65.29736328 67.70776367 C64.87379019 85.86152203 57.41489087 99.65900965 44.8125 112.5 C44.19761719 113.139375 43.58273438 113.77875 42.94921875 114.4375 C31.68780192 125.24074355 15.94973054 130.10224352 0.625 130 C-0.37168701 129.99500488 -1.36837402 129.99000977 -2.39526367 129.98486328 C-20.54902203 129.56129019 -34.34650965 122.10239087 -47.1875 109.5 C-47.826875 108.88511719 -48.46625 108.27023438 -49.125 107.63671875 C-59.92824355 96.37530192 -64.78974352 80.63723054 -64.6875 65.3125 C-64.68250488 64.31581299 -64.67750977 63.31912598 -64.67236328 62.29223633 C-64.24879019 44.13847797 -56.78989087 30.34099035 -44.1875 17.5 C-43.57261719 16.860625 -42.95773438 16.22125 -42.32421875 15.5625 C-31.06280192 4.75925645 -15.32473054 -0.10224352 0 0 Z " fill="#FEFEFE" transform="translate(64.1875,-0.5)"/>
<path d="M0 0 C0.87078186 -0.00807175 1.74156372 -0.01614349 2.63873291 -0.02445984 C4.48472094 -0.03830382 6.3307346 -0.04902457 8.17675781 -0.05688477 C10.99073335 -0.07406676 13.80352452 -0.11794543 16.6171875 -0.16210938 C18.4114497 -0.17223915 20.20572189 -0.18075436 22 -0.1875 C23.25656403 -0.21376213 23.25656403 -0.21376213 24.53851318 -0.24055481 C31.021095 -0.21666677 34.39526828 1.69208139 39.27612305 6.02172852 C39.85402588 6.61010498 40.43192871 7.19848145 41.02734375 7.8046875 C41.67123047 8.45501953 42.31511719 9.10535156 42.97851562 9.77539062 C43.63013672 10.44376953 44.28175781 11.11214844 44.953125 11.80078125 C45.61634766 12.47302734 46.27957031 13.14527344 46.96289062 13.83789062 C48.19203734 15.0843667 49.41910534 16.33289887 50.64331055 17.58422852 C52.2129021 19.23599274 52.2129021 19.23599274 53.85083008 20.57788086 C58.47020537 25.99917014 57.5719002 33.51886099 57.56640625 40.20703125 C57.57069138 41.3607019 57.5749765 42.51437256 57.57939148 43.70300293 C57.585123 46.13711899 57.58564374 48.57125217 57.58129883 51.00537109 C57.57813609 54.72523207 57.60162352 58.44429959 57.62695312 62.1640625 C57.62922597 64.53255108 57.62992968 66.9010418 57.62890625 69.26953125 C57.638116 70.37905151 57.64732574 71.48857178 57.65681458 72.63171387 C57.62335538 78.2251615 57.5294537 82.46151928 54.265625 87.23828125 C50.03399603 91.05706837 47.62716337 92.35824061 41.99316406 92.4152832 C40.89151917 92.42811844 39.78987427 92.44095367 38.65484619 92.45417786 C37.45905945 92.46156479 36.26327271 92.46895172 35.03125 92.4765625 C33.80533142 92.48463425 32.57941284 92.49270599 31.31634521 92.50102234 C28.71709614 92.51487362 26.1178288 92.52559108 23.51855469 92.53344727 C19.54594428 92.54666182 15.57394718 92.59452879 11.6015625 92.63867188 C9.07813113 92.64879934 6.55469267 92.65731527 4.03125 92.6640625 C2.84356018 92.68157059 1.65587036 92.69907867 0.43218994 92.71711731 C-5.92394287 92.70042874 -9.93744824 92.58555935 -14.734375 88.23828125 C-18.83820402 83.70991819 -18.86159511 79.49948966 -18.89550781 73.54541016 C-18.90047272 72.88146744 -18.90543762 72.21752472 -18.91055298 71.53346252 C-18.92512017 69.34391227 -18.93196711 67.15443444 -18.9375 64.96484375 C-18.9432555 63.43793741 -18.94901318 61.91103108 -18.95477295 60.38412476 C-18.96526714 57.1847907 -18.97112029 53.98548165 -18.97460938 50.78613281 C-18.98009383 46.69503262 -19.00412725 42.60426527 -19.03258133 38.51326942 C-19.05124211 35.3596196 -19.05641511 32.20604946 -19.05794525 29.05234909 C-19.06096405 27.5445206 -19.06896643 26.03669326 -19.08213043 24.52891922 C-19.09926532 22.41567163 -19.09729326 20.30323107 -19.09082031 18.18994141 C-19.09446594 16.98955231 -19.09811157 15.78916321 -19.10186768 14.55239868 C-18.54495945 9.53009655 -16.91026531 6.29945056 -13.171875 2.92578125 C-8.79236504 -0.10618718 -5.19522447 0.045373 0 0 Z " fill="#FBFBFB" transform="translate(46.734375,18.76171875)"/>
<path d="M0 0 C0.87078186 -0.00807175 1.74156372 -0.01614349 2.63873291 -0.02445984 C4.48472094 -0.03830382 6.3307346 -0.04902457 8.17675781 -0.05688477 C10.99073335 -0.07406676 13.80352452 -0.11794543 16.6171875 -0.16210938 C18.4114497 -0.17223915 20.20572189 -0.18075436 22 -0.1875 C23.25656403 -0.21376213 23.25656403 -0.21376213 24.53851318 -0.24055481 C31.021095 -0.21666677 34.39526828 1.69208139 39.27612305 6.02172852 C39.85402588 6.61010498 40.43192871 7.19848145 41.02734375 7.8046875 C41.67123047 8.45501953 42.31511719 9.10535156 42.97851562 9.77539062 C43.63013672 10.44376953 44.28175781 11.11214844 44.953125 11.80078125 C45.61634766 12.47302734 46.27957031 13.14527344 46.96289062 13.83789062 C48.19203734 15.0843667 49.41910534 16.33289887 50.64331055 17.58422852 C52.2129021 19.23599274 52.2129021 19.23599274 53.85083008 20.57788086 C58.47020537 25.99917014 57.5719002 33.51886099 57.56640625 40.20703125 C57.57069138 41.3607019 57.5749765 42.51437256 57.57939148 43.70300293 C57.585123 46.13711899 57.58564374 48.57125217 57.58129883 51.00537109 C57.57813609 54.72523207 57.60162352 58.44429959 57.62695312 62.1640625 C57.62922597 64.53255108 57.62992968 66.9010418 57.62890625 69.26953125 C57.638116 70.37905151 57.64732574 71.48857178 57.65681458 72.63171387 C57.62335538 78.2251615 57.5294537 82.46151928 54.265625 87.23828125 C50.03399603 91.05706837 47.62716337 92.35824061 41.99316406 92.4152832 C40.89151917 92.42811844 39.78987427 92.44095367 38.65484619 92.45417786 C37.45905945 92.46156479 36.26327271 92.46895172 35.03125 92.4765625 C33.80533142 92.48463425 32.57941284 92.49270599 31.31634521 92.50102234 C28.71709614 92.51487362 26.1178288 92.52559108 23.51855469 92.53344727 C19.54594428 92.54666182 15.57394718 92.59452879 11.6015625 92.63867188 C9.07813113 92.64879934 6.55469267 92.65731527 4.03125 92.6640625 C2.84356018 92.68157059 1.65587036 92.69907867 0.43218994 92.71711731 C-5.92394287 92.70042874 -9.93744824 92.58555935 -14.734375 88.23828125 C-18.83820402 83.70991819 -18.86159511 79.49948966 -18.89550781 73.54541016 C-18.90047272 72.88146744 -18.90543762 72.21752472 -18.91055298 71.53346252 C-18.92512017 69.34391227 -18.93196711 67.15443444 -18.9375 64.96484375 C-18.9432555 63.43793741 -18.94901318 61.91103108 -18.95477295 60.38412476 C-18.96526714 57.1847907 -18.97112029 53.98548165 -18.97460938 50.78613281 C-18.98009383 46.69503262 -19.00412725 42.60426527 -19.03258133 38.51326942 C-19.05124211 35.3596196 -19.05641511 32.20604946 -19.05794525 29.05234909 C-19.06096405 27.5445206 -19.06896643 26.03669326 -19.08213043 24.52891922 C-19.09926532 22.41567163 -19.09729326 20.30323107 -19.09082031 18.18994141 C-19.09446594 16.98955231 -19.09811157 15.78916321 -19.10186768 14.55239868 C-18.54495945 9.53009655 -16.91026531 6.29945056 -13.171875 2.92578125 C-8.79236504 -0.10618718 -5.19522447 0.045373 0 0 Z M-9.734375 10.23828125 C-9.78065479 19.46097331 -9.81622194 28.68362559 -9.83799934 37.90640831 C-9.84844983 42.18862373 -9.86263197 46.47075989 -9.88525391 50.75292969 C-9.90693738 54.88316251 -9.91893409 59.01331894 -9.92412949 63.14360428 C-9.92783335 64.72171863 -9.9350658 66.29982866 -9.94583511 67.87791061 C-9.96029049 70.08325076 -9.96235548 72.28827267 -9.96142578 74.49365234 C-9.965867 75.75051849 -9.97030823 77.00738464 -9.97488403 78.30233765 C-10.04305032 81.36094867 -10.04305032 81.36094867 -7.734375 83.23828125 C-5.36288952 83.54472536 -5.36288952 83.54472536 -2.58203125 83.49707031 C-0.97026001 83.50652679 -0.97026001 83.50652679 0.67407227 83.51617432 C1.83865967 83.51212585 3.00324707 83.50807739 4.203125 83.50390625 C5.39413818 83.5058197 6.58515137 83.50773315 7.81225586 83.50970459 C10.33414928 83.51106755 12.85604969 83.50736341 15.37792969 83.49902344 C19.24950849 83.48832578 23.12062322 83.49891531 26.9921875 83.51171875 C29.43750103 83.51039718 31.88281427 83.50783483 34.328125 83.50390625 C36.0750061 83.50997894 36.0750061 83.50997894 37.85717773 83.51617432 C38.93169189 83.50987 40.00620605 83.50356567 41.11328125 83.49707031 C42.06211182 83.49547913 43.01094238 83.49388794 43.98852539 83.49224854 C46.46410197 83.45605168 46.46410197 83.45605168 48.265625 81.23828125 C48.55756246 79.09608243 48.55756246 79.09608243 48.49267578 76.60498047 C48.49244919 75.16371292 48.49244919 75.16371292 48.49221802 73.69332886 C48.48189545 72.65371002 48.47157288 71.61409119 48.4609375 70.54296875 C48.45669266 68.94909836 48.45669266 68.94909836 48.45236206 67.32302856 C48.44114139 63.91966626 48.41603337 60.51656439 48.390625 57.11328125 C48.38059764 54.80989963 48.37147137 52.50651389 48.36328125 50.203125 C48.34119593 44.5480878 48.30769989 38.89320312 48.265625 33.23828125 C47.67547607 33.22369873 47.08532715 33.20911621 46.47729492 33.1940918 C43.80191271 33.11959281 41.12777608 33.0229413 38.453125 32.92578125 C37.52435547 32.90322266 36.59558594 32.88066406 35.63867188 32.85742188 C34.74599609 32.82197266 33.85332031 32.78652344 32.93359375 32.75 C31.70032349 32.71072388 31.70032349 32.71072388 30.44213867 32.6706543 C27.78084534 32.14197785 26.90237218 31.37061221 25.265625 29.23828125 C24.40143277 26.64570456 24.08981568 24.89790418 23.94921875 22.2265625 C23.90732422 21.46923828 23.86542969 20.71191406 23.82226562 19.93164062 C23.78294922 19.14595703 23.74363281 18.36027344 23.703125 17.55078125 C23.65994141 16.75349609 23.61675781 15.95621094 23.57226562 15.13476562 C23.46635132 13.16946678 23.36549949 11.20389629 23.265625 9.23828125 C18.8873738 9.21359044 14.50915933 9.19542568 10.13085938 9.18334961 C8.64094334 9.17831611 7.15103226 9.17148883 5.66113281 9.1628418 C3.52147196 9.1507332 1.38187632 9.14504318 -0.7578125 9.140625 C-2.69019775 9.13276978 -2.69019775 9.13276978 -4.66162109 9.12475586 C-7.64842728 9.02285494 -7.64842728 9.02285494 -9.734375 10.23828125 Z " fill="#0D0D0D" transform="translate(46.734375,18.76171875)"/>
<path d="M0 0 C0.83729141 -0.0033284 1.67458282 -0.0066568 2.5372467 -0.01008606 C4.31185353 -0.01515881 6.08646992 -0.01749428 7.86108398 -0.01733398 C10.58267881 -0.01951922 13.30386768 -0.03766758 16.02539062 -0.05664062 C17.74609236 -0.05957467 19.46679602 -0.06155939 21.1875 -0.0625 C22.00524399 -0.06968552 22.82298798 -0.07687103 23.66551208 -0.08427429 C29.43133421 -0.06085329 29.43133421 -0.06085329 31.66015625 2.16796875 C31.10460069 6.72352431 31.10460069 6.72352431 29.66015625 8.16796875 C26.87191887 8.28142025 24.1093828 8.33215138 21.3203125 8.3359375 C20.48302109 8.3392659 19.64572968 8.3425943 18.7830658 8.34602356 C17.00845897 8.35109631 15.23384258 8.35343178 13.45922852 8.35327148 C10.73763369 8.35545672 8.01644482 8.37360508 5.29492188 8.39257812 C3.57422014 8.39551217 1.85351648 8.39749689 0.1328125 8.3984375 C-0.68493149 8.40562302 -1.50267548 8.41280853 -2.34519958 8.42021179 C-8.11102171 8.39679079 -8.11102171 8.39679079 -10.33984375 6.16796875 C-9.45954872 -1.05045051 -6.46525874 0.0087765 0 0 Z " fill="#030303" transform="translate(55.33984375,81.83203125)"/>
<path d="M0 0 C0.83729141 -0.0033284 1.67458282 -0.0066568 2.5372467 -0.01008606 C4.31185353 -0.01515881 6.08646992 -0.01749428 7.86108398 -0.01733398 C10.58267881 -0.01951922 13.30386768 -0.03766758 16.02539062 -0.05664062 C17.74609236 -0.05957467 19.46679602 -0.06155939 21.1875 -0.0625 C22.00524399 -0.06968552 22.82298798 -0.07687103 23.66551208 -0.08427429 C29.43133421 -0.06085329 29.43133421 -0.06085329 31.66015625 2.16796875 C31.10460069 6.72352431 31.10460069 6.72352431 29.66015625 8.16796875 C26.87191887 8.28142025 24.1093828 8.33215138 21.3203125 8.3359375 C20.48302109 8.3392659 19.64572968 8.3425943 18.7830658 8.34602356 C17.00845897 8.35109631 15.23384258 8.35343178 13.45922852 8.35327148 C10.73763369 8.35545672 8.01644482 8.37360508 5.29492188 8.39257812 C3.57422014 8.39551217 1.85351648 8.39749689 0.1328125 8.3984375 C-0.68493149 8.40562302 -1.50267548 8.41280853 -2.34519958 8.42021179 C-8.11102171 8.39679079 -8.11102171 8.39679079 -10.33984375 6.16796875 C-9.45954872 -1.05045051 -6.46525874 0.0087765 0 0 Z " fill="#030303" transform="translate(55.33984375,64.83203125)"/>
<path d="M0 0 C1.45212891 -0.03867187 1.45212891 -0.03867187 2.93359375 -0.078125 C5.5625 0.25 5.5625 0.25 7.421875 1.6015625 C8.5625 3.25 8.5625 3.25 8.375 5.875 C7.5625 8.25 7.5625 8.25 5.5625 9.25 C3.75406337 9.39716542 1.93918434 9.4710887 0.125 9.5 C-1.32712891 9.53867187 -1.32712891 9.53867187 -2.80859375 9.578125 C-5.4375 9.25 -5.4375 9.25 -7.296875 7.8984375 C-8.4375 6.25 -8.4375 6.25 -8.25 3.625 C-6.81989635 -0.55530297 -3.98067507 0.06343705 0 0 Z " fill="#151515" transform="translate(53.4375,47.75)"/>
<path d="M0 0 C4.89434213 4.09526587 9.70720334 8.26357085 14 13 C14 13.33 14 13.66 14 14 C9.38 14 4.76 14 0 14 C0 9.38 0 4.76 0 0 Z " fill="#FAFAFA" transform="translate(79,30)"/>
</svg>
